<?xml version="1.0" encoding="UTF-8"?>
<svg width="45px" height="49px" viewBox="0 0 45 49" version="1.1" xmlns="http://www.w3.org/2000/svg" xmlns:xlink="http://www.w3.org/1999/xlink">
    <!-- Generator: Sketch 51.1 (57501) - http://www.bohemiancoding.com/sketch -->
    <title>logo_ironhack_blue (2)</title>
    <desc>Created with Sketch.</desc>
    <defs>
        <polygon id="path-1" points="1.9292461e-05 0 44.9281675 0 44.9281675 48.9167702 1.9292461e-05 48.9167702"></polygon>
    </defs>
    <g id="Page-1" stroke="none" stroke-width="1" fill="none" fill-rule="evenodd">
        <g id="Desktop-Copy" transform="translate(-77.000000, -23.000000)">
            <g id="logo_ironhack_blue-(2)" transform="translate(77.000000, 23.000000)">
                <g id="Clipped">
                    <mask id="mask-2" fill="white">
                        <use xlink:href="#path-1"></use>
                    </mask>
                    <g id="a"></g>
                    <path d="M21.051226,48.5508571 L1.55122101,37.7545826 C0.595341518,37.225341 1.5841556e-05,36.2042227 1.5841556e-05,35.0939545 L1.5841556e-05,13.8227908 C1.5841556e-05,12.7126023 0.595341518,11.6914041 1.55122101,11.1622422 L21.051226,0.365967841 C21.9324918,-0.122005214 22.9956187,-0.122005214 23.8768844,0.365967841 L43.3769686,11.1622422 C44.3328481,11.6914041 44.9281737,12.7126023 44.9281737,13.8227908 L44.9281737,35.0939545 C44.9281737,36.2042227 44.3328481,37.225341 43.3769686,37.7545826 L23.8768844,48.5508571 C22.9956187,49.0387504 21.9324918,49.0387504 21.051226,48.5508571" id="Shape" stroke="#FFFFFF" fill-opacity="0" fill="#32C3FF" fill-rule="nonzero" mask="url(#mask-2)"></path>
                </g>
                <path d="M24.4664512,24.1167561 C24.4664512,24.1167561 21.6492548,24.1167561 24.4664512,24.1167561 Z M14.6835578,19.1803947 C14.6835578,19.1803947 14.7289265,19.1863093 14.7443348,19.1863093 C14.7229344,19.1863093 14.698538,19.1803947 14.6681495,19.1774373 L14.6835578,19.1803947 Z M14.6946237,19.1822363 L14.7125999,19.1822363 C14.7125999,19.1822363 14.6762193,19.1822363 14.657815,19.1763216 C14.6732233,19.1822363 14.6762193,19.1822363 14.6762193,19.1822363 L14.6946237,19.1822363 Z M14.6543782,19.1745683 L14.6603703,19.1745683 L14.642394,19.1745683 L14.6543782,19.1745683 Z M14.633755,19.1745683 L14.6765558,19.1745683 L14.633755,19.1745683 Z M9.00000808,24.0245494 L10.8418069,24.0245494 L10.8418069,15.0916489 L9.00000808,15.0916489 L9.00000808,24.0245494 Z M14.7724632,19.1898697 C14.7814514,19.1898697 14.7814514,19.1957844 14.7814514,19.1957844 L14.7724632,19.1898697 Z M14.7489684,19.1875585 C14.7977612,19.1875585 14.849122,19.1998104 14.849122,19.1998104 C14.8371378,19.1998104 14.7977612,19.1875585 14.7489684,19.1875585 Z M14.7025439,19.1819002 C14.7329324,19.1819002 14.7483407,19.1882374 14.7633209,19.1911947 C14.7483407,19.1882374 14.7239443,19.1819002 14.7239443,19.1819002 L14.7025439,19.1819002 Z M14.633755,19.1745683 L14.633755,16.4899723 C15.0091067,16.4424743 15.4326591,16.4147405 15.792509,16.4147405 C17.1151615,16.4147405 17.5650345,16.810106 17.5650345,17.7966468 C17.5650345,18.9342091 16.8933738,19.2198349 15.7541584,19.2198349 C15.3936625,19.2198349 15.0406753,19.2170456 14.6825209,19.1791109 L14.6853467,19.1807845 C14.6796143,19.1791109 14.6767885,19.1779952 14.6710561,19.1779952 L14.6647585,19.1774373 C14.6647585,19.1774373 14.657815,19.1774373 14.654424,19.1763216 L14.657815,19.1763216 L14.6527285,19.1763216 C14.6527285,19.1763216 14.6481264,19.1763216 14.645785,19.1745683 L14.6481264,19.1763216 C14.6481264,19.1763216 14.645785,19.1763216 14.6446547,19.1745683 L14.6394874,19.1745683 L14.633755,19.1745683 Z M12.7999493,15.2432283 L12.7999493,24.0245494 L14.633755,24.0245494 L14.633755,20.6147313 C14.9535589,20.6340175 15.3718632,20.6543397 15.7414825,20.6543397 L17.5994289,24.0245494 L19.7140419,24.0245494 L17.6464185,20.4467349 C18.7111126,20.1288328 19.3833384,19.3855999 19.3833384,17.8045366 C19.3833384,15.3897868 17.7478256,15 15.7460846,15 C14.6612867,15 13.584482,15.1040813 12.7999493,15.2432283 Z M22.7099927,19.5586968 C22.7099927,17.7360788 22.748424,16.4899723 24.4664512,16.4899723 C26.1776156,16.4899723 26.219438,17.7360788 26.219438,19.5586968 C26.219438,21.3795615 26.1776156,22.6211255 24.4664512,22.6211255 C22.748424,22.6211255 22.7099927,21.3795615 22.7099927,19.5586968 Z M20.8435687,19.5586968 C20.8435687,22.7936645 21.6492548,24.1167561 24.4664512,24.1167561 C27.2790456,24.1167561 28.0836819,22.7936645 28.0836819,19.5586968 C28.0836819,16.3225337 27.2790456,15 24.4664512,15 C21.6492548,15 20.8435687,16.3225337 20.8435687,19.5586968 Z M29.8045349,16.3581573 L29.8045349,24.0245494 L31.4555495,24.0245494 L31.4555495,17.4482215 L34.3283745,22.9384697 C34.7942337,23.8271454 35.2189163,24.1167561 35.8928378,24.1167561 C36.5971167,24.1167561 37,23.7044156 37,22.7546142 L37,15.0916489 L35.3506811,15.0916489 L35.3506811,21.6419962 L32.4755954,16.172628 C32.021201,15.3111282 31.5449267,15 30.9162994,15 C30.222355,15 29.8045349,15.4055664 29.8045349,16.3581573 Z M14.4637124,25.6053577 L14.4637124,29.3564283 L9.70993059,29.3564283 L9.70993059,25.6053577 L9,25.6053577 L9,33.9152048 L9.70993059,33.9152048 L9.70993059,29.9619488 L14.4637124,29.9619488 L14.4637124,33.9152048 L15.1720282,33.9152048 L15.1720282,25.6053577 L14.4637124,25.6053577 Z M35.9834986,25.6053577 L32.089013,29.4555685 L32.089013,25.6053577 L31.3807779,25.6053577 L31.3807779,33.9152048 L32.089013,33.9152048 L32.089013,29.8334011 L36.0576163,33.9152048 L36.9999113,33.9152048 L32.8041108,29.6212538 L36.8876853,25.6053577 L35.9834986,25.6053577 Z M20.2917153,26.4551424 L21.9619456,30.8693526 L18.6124425,30.8693526 L20.2917153,26.4551424 Z M19.7893626,25.9931521 L16.7226852,33.9152048 L17.450136,33.9152048 L18.3862949,31.4488926 L22.1825222,31.4488926 L23.1192462,33.9152048 L23.8757627,33.9152048 L20.8456597,25.9931521 C20.7260866,25.6806692 20.5604927,25.5189685 20.3124651,25.5189685 C20.0677476,25.5189685 19.912246,25.6757282 19.7893626,25.9931521 Z M24.5941708,29.760321 C24.5941708,32.7091847 25.2469388,34 27.9481953,34 C28.6452884,34 29.2597866,33.9257244 29.7868453,33.8243529 L29.7211244,33.2632223 C29.2559111,33.3263406 28.7889218,33.3905745 28.318622,33.3905745 C25.6622559,33.3905745 25.3148397,32.1989793 25.3148397,29.760321 C25.3148397,27.326604 25.606143,26.1288721 28.318622,26.1288721 C28.7731778,26.1288721 29.2856227,26.1958954 29.7183793,26.2618029 L29.7868453,25.6829005 C29.2597866,25.5820869 28.6278491,25.5189685 27.9481953,25.5189685 C25.2508143,25.5189685 24.5941708,26.8058787 24.5941708,29.760321 Z" id="Shape" fill="#FFFFFF" fill-rule="nonzero"></path>
            </g>
        </g>
    </g>
</svg>